HIERARCHY
ROOT pelvis
{
  OFFSET 0 100 0
  CHANNELS 6 Xposition Yposition Zposition Zrotation Xrotation Yrotation
  JOINT pelvis_right_femur
  {
    OFFSET -10.78128 -3.44521 -0.5502486
    CHANNELS 3 Zrotation Xrotation Yrotation
    JOINT right_femur_tibia
    {
      OFFSET -0.8047443 -44.0398 -0.1307829
      CHANNELS 3 Zrotation Xrotation Yrotation
      JOINT right_tibia_foot
      {
        OFFSET 3.006224 -47.83518 -5
        CHANNELS 3 Zrotation Xrotation Yrotation
        End Site
        {
          OFFSET 0 -5 15
        }
      }
    }
  }
  JOINT pelvis_left_femur
  {
    OFFSET 10.78128 -3.44521 -0.5502486
    CHANNELS 3 Zrotation Xrotation Yrotation
    JOINT left_femur_tibia
    {
      OFFSET 0.8047443 -44.0398 -0.1307829
      CHANNELS 3 Zrotation Xrotation Yrotation
      JOINT left_tibia_foot
      {
        OFFSET -4.370144 -48.10324 -4.275266
        CHANNELS 3 Zrotation Xrotation Yrotation
        End Site
        {
          OFFSET 0 -5 15
        }
      }
    }
  }
  JOINT pelvis_spine1
  {
    OFFSET 0 6.468898 -3.129235
    CHANNELS 3 Zrotation Xrotation Yrotation
    JOINT spine1
    {
      OFFSET 0 23.15396 4.99043
      CHANNELS 3 Zrotation Xrotation Yrotation
      JOINT spine2
      {
        OFFSET 0 20.79997 -5.064912
        CHANNELS 3 Zrotation Xrotation Yrotation
        JOINT neck
        {
          OFFSET 0 14.38658 9.616178
          CHANNELS 3 Zrotation Xrotation Yrotation
          End Site
          {
            OFFSET 0 20 0
          }
        }
      }
      JOINT right_manubrium
      {
        OFFSET -5.722621 16.35077 3.967754
        CHANNELS 3 Zrotation Xrotation Yrotation
        JOINT right_clavicle
        {
          OFFSET -13.16364 1.694482 -4.693211
          CHANNELS 3 Zrotation Xrotation Yrotation
          JOINT right_humerus
          {
            OFFSET -28.5034 -0.3100689 -2.792744
            CHANNELS 3 Zrotation Xrotation Yrotation
            JOINT right_radius
            {
              OFFSET -25.15693 0.02248979 -1.271978
              CHANNELS 3 Zrotation Xrotation Yrotation
              End Site
              {
                OFFSET -15 0 0
              }
            }
          }
        }
      }
      JOINT left_manubrium
      {
        OFFSET 5.722621 16.35077 3.967754
        CHANNELS 3 Zrotation Xrotation Yrotation
        JOINT left_clavicle
        {
          OFFSET 13.16364 1.694482 -4.693211
          CHANNELS 3 Zrotation Xrotation Yrotation
          JOINT left_humerus
          {
            OFFSET 29.39168 -1.063119 -2.237045
            CHANNELS 3 Zrotation Xrotation Yrotation
            JOINT left_radius
            {
              OFFSET 24.59957 -0.9528479 0.9047498
              CHANNELS 3 Zrotation Xrotation Yrotation
              End Site
              {
                OFFSET 15 -0 -0
              }
            }
          }
        }
      }
    }
  }
}
MOTION
Frames: 13
Frame Time: 0.0416666666667
0 103.5113 0 1.297921 -1.924632 0.09382591 2.723309 -13.23358 7.281228 -0 36.66899 -0 -5.455321 -18.56464 -4.827651 -6.324856 13.58202 -25.09829 -0 5.43177 -0 -0.5152444 -20.5932 22.44483 -4.361086 -3.125499 2.769635 2.741943 7.275567 -8.131176 0.2502567 23.59592 7.929938 3.946704 -22.48659 8.103783 7.245801 -18.1188 11.55084 85.37206 36.94922 -21.0949 -0 0 15.35784 -7.764837 8.030903 5.372098 4.081224 -17.91816 -2.900807 -99.62824 40.57616 27.01977 0 0 -17.84841 -11.59309 16.49844 25.89296
0.09973255 103.7762 1.294915 0.8635584 -1.901991 0.2061843 3.082149 -14.61062 7.160425 -0 37.52409 -0 -5.451782 -17.43796 -4.811448 -6.103036 13.58866 -24.61443 -0 5.317136 -0 -1.124054 -21.01835 21.76112 -4.008499 -2.939269 2.673141 2.725739 7.372218 -8.096102 0.443624 23.50841 7.855666 3.756407 -22.84176 8.397083 6.857155 -18.19887 11.56138 85.57786 35.66838 -20.99297 -0 0 15.33239 -7.933427 8.215375 5.242243 4.307662 -18.25394 -2.74588 -99.21477 40.13501 26.60702 0 0 -18.16702 -10.68345 17.03307 25.22298
0.232295 103.8996 3.088939 -0.2412295 -1.062044 0.2971382 4.089264 -21.06471 6.544129 -0 34.51436 -0 -5.675941 -13.6124 -4.484502 -5.445013 13.75806 -22.78173 -0 5.657962 -0 -2.556368 -22.32867 19.77733 -3.012923 -1.885725 2.655492 2.811447 7.627975 -8.273104 0.6945974 22.61529 8.130222 4.052741 -23.81096 8.73267 6.273121 -18.33417 11.49658 86.0617 34.13287 -21.3127 -0 0 15.16788 -8.660267 8.408499 5.489191 5.073573 -19.38858 -2.736452 -97.38168 38.64008 24.99947 0 0 -20.56319 -8.68473 16.15935 24.1328
0.3632359 103.904 5.096177 -0.6151267 -0.4632172 0.3806532 4.480797 -23.97416 6.268562 -0 31.92209 -0 -5.747853 -12.3462 -4.299588 -5.182337 13.93685 -22.16164 -0 5.951629 -0 -3.180812 -22.94326 18.96311 -2.657336 -1.439705 2.684498 2.85778 7.566432 -8.356346 0.7865696 22.23609 8.292158 4.284536 -24.17504 8.841602 6.213128 -18.23712 11.41009 86.16243 34.14243 -21.56329 -0 0 15.04052 -8.892775 8.611617 5.569518 5.388125 -19.77523 -2.732535 -96.78185 38.2763 24.39532 0 0 -21.61635 -8.201999 15.7698 24.03631
0.4763314 103.803 7.346316 -1.050894 0.5186753 0.4416117 5.049814 -27.46944 6.009832 -0 28.27703 -0 -5.747418 -11.22202 -4.055752 -4.847755 14.234 -21.71173 -0 6.401133 -0 -4.098504 -23.79961 17.93921 -2.261212 -1.000775 2.706386 2.909466 7.283522 -8.419286 0.9509465 21.84156 8.463452 4.54121 -24.63949 9.063254 6.298955 -17.93512 11.27152 86.16624 34.57951 -21.87036 -0 0 14.86902 -9.018479 9.166196 5.522587 5.801802 -20.11101 -2.5523 -96.39002 38.10544 23.84068 0 0 -22.60559 -7.818636 15.83965 24.06736
0.5743565 103.5527 9.981932 -1.244588 0.9558773 0.5012433 5.128948 -30.19009 5.182485 -0 25.09315 -0 -6.114459 -8.703004 -3.705672 -4.707081 14.5257 -20.40899 -0 7.136707 -0 -4.466232 -24.27211 16.86483 -1.988055 -0.5549186 2.688146 2.878302 7.352823 -8.448575 1.027455 21.56512 8.558183 4.727001 -24.88708 9.061854 5.954448 -17.76013 11.17821 86.73805 34.28219 -22.28352 -0 0 14.1182 -9.876836 9.406077 5.852638 6.037499 -20.77984 -2.806326 -94.99658 37.11887 22.40409 0 0 -24.12276 -6.773741 15.45707 23.28763
0.6434641 103.1128 13.20288 -1.263733 1.059461 0.5861251 4.791218 -32.70841 3.578494 -0 21.13204 -0 -6.838409 -4.896722 -3.145468 -4.68153 15.00413 -18.26264 -0 8.277025 -0 -4.508323 -24.5944 15.51134 -1.736891 -0.1265126 2.637632 2.755132 7.637084 -8.415144 1.100678 21.42119 8.530455 4.796441 -24.98493 8.93318 5.097211 -17.61101 11.07812 87.94737 33.18144 -22.9041 -0 0 12.69794 -11.4609 9.536361 6.416403 6.220464 -21.85173 -3.401207 -92.69939 35.22029 20.01424 0 0 -26.35572 -4.948118 15.04229 21.54751
0.6646649 102.4081 17.18679 -0.8743785 0.5280563 0.6963412 3.740587 -33.88215 1.108738 -0 16.22104 -0 -7.934686 -0.2677044 -2.438685 -4.927476 15.61571 -15.24113 -0 9.928404 -0 -3.889135 -24.53736 14.17955 -1.617517 0.1259805 2.673969 2.500245 8.17802 -8.259719 1.166191 21.56498 8.232459 4.620619 -24.78342 8.573865 3.501131 -17.63463 10.93734 89.96425 30.94728 -23.75817 -0 0 10.55537 -13.72976 9.176837 7.169877 6.147978 -23.27039 -4.512069 -89.73197 32.44057 16.92993 0 0 -29.3699 -2.66954 14.31327 19.11156
0.6046096 101.3926 22.11127 -0.008096202 -0.763544 0.8683101 2.243688 -32.88761 -2.014478 -0 10.12437 -0 -9.363636 4.338299 -1.707018 -5.479956 16.41078 -11.48411 -0 12.15738 -0 -2.334761 -24.03351 13.13658 -1.638254 -0.07143642 2.86946 2.10789 8.945177 -7.916931 1.312844 22.12451 7.447188 3.934223 -24.28804 8.064532 0.834551 -17.93413 10.74068 92.9928 27.08209 -24.74311 -0 0 7.64685 -16.4336 8.204405 7.842767 5.789269 -25.0267 -6.004977 -86.39007 28.50487 13.32309 0 0 -33.14631 0.200178 13.59715 15.54788
0.4436715 100.1393 27.96888 1.088508 -2.555702 1.123164 1.343331 -29.41044 -4.351024 -0 4.139594 -0 -10.74098 6.743947 -1.545489 -6.175148 17.25961 -7.929327 -0 14.39626 -0 0.3708378 -22.96118 13.11854 -1.753491 -0.8944537 3.249211 1.747115 9.779016 -7.459062 1.597715 22.91421 6.142288 2.607965 -23.80524 7.644952 -2.705443 -18.62744 10.51128 96.62882 22.1131 -25.40359 -0 0 4.628455 -18.40699 6.509698 7.986303 5.186632 -26.72384 -7.292782 -83.48094 23.76856 10.01999 0 0 -36.94934 3.426559 12.80861 10.8495
0.2267544 99.08538 34.36611 1.102577 -2.937225 1.290764 2.70199 -26.75421 -3.707571 -0 2.226762 -0 -11.29776 4.846499 -2.348314 -6.155854 17.93831 -6.792939 -0 15.6245 -0 2.567818 -21.1931 13.95851 -1.471613 -1.860134 3.337194 1.873839 10.11261 -7.383205 1.766484 22.88125 5.250553 1.43099 -24.25055 7.741351 -4.807106 -19.15256 10.48374 98.66981 19.91673 -25.30791 -0 0 3.459496 -17.68261 5.309549 7.445697 4.935657 -27.29327 -6.991073 -82.42306 20.06118 8.719167 0 0 -38.17928 6.341819 11.9546 6.072131
0.02119489 98.6794 40.71489 -0.5356898 -1.066718 1.246838 5.715794 -27.46978 -0.7543723 -0 6.145628 -0 -10.9221 0.5773664 -2.952747 -5.172184 18.15308 -8.532891 -0 17.49554 -0 1.622016 -18.65957 13.89812 -0.4895434 -2.008356 2.692531 2.501317 9.609482 -7.938965 1.435516 21.82884 5.856685 1.525175 -25.43766 8.360761 -3.392374 -18.52169 10.78171 97.39038 23.09384 -24.82704 -0 0 4.645375 -14.82154 6.15715 6.770509 5.260704 -26.11933 -5.274274 -83.5967 19.47534 9.850142 0 0 -35.00907 8.18619 11.62297 3.198671
-0.1776753 98.71467 46.83995 -1.730079 -0.3016912 1.070228 7.402705 -26.84189 0.6798959 -0 9.807498 -0 -10.47495 -2.975258 -2.64221 -4.559033 17.30839 -10.15341 -0 23.7171 -0 -0.550219 -16.02168 13.60272 0.2452011 -1.682468 2.148141 2.867509 9.111422 -8.272631 1.037918 21.70316 6.834765 2.018935 -25.38825 9.014167 -1.542064 -17.24636 11.08323 95.79092 26.33228 -24.47949 -0 0 5.029071 -13.10296 7.787069 5.983115 5.604316 -24.76803 -4.113778 -85.165 19.91218 10.72917 0 0 -30.6462 9.99897 12.60597 0.4621636
